<?xml version="1.0" standalone="no"?>
<!DOCTYPE svg PUBLIC "-//W3C//DTD SVG 20010904//EN"
 "http://www.w3.org/TR/2001/REC-SVG-20010904/DTD/svg10.dtd">
<svg version="1.0" xmlns="http://www.w3.org/2000/svg"
 width="512.000000pt" height="512.000000pt" viewBox="0 0 512.000000 512.000000"
 preserveAspectRatio="xMidYMid meet">

<g transform="translate(0.000000,512.000000) scale(0.100000,-0.100000)"
fill="#000000" stroke="none">
<path d="M777 3470 c-197 -36 -370 -125 -506 -261 -129 -129 -214 -289 -252
-473 -35 -172 -17 -355 53 -527 88 -217 273 -404 486 -494 133 -55 210 -70
367 -70 113 1 156 5 225 23 268 72 491 259 606 506 63 138 79 213 79 386 0
132 -4 167 -23 235 -95 331 -334 565 -667 657 -80 22 -291 32 -368 18z m138
-362 l57 -11 -6 -54 c-3 -30 -7 -59 -9 -65 -2 -10 71 -33 80 -25 1 2 8 30 14
63 6 32 12 60 13 62 3 2 99 -15 122 -23 9 -3 8 -20 -2 -67 -17 -81 -17 -76 7
-83 29 -10 87 -63 105 -96 7 -15 14 -52 14 -82 0 -80 -47 -141 -132 -171 l-37
-12 47 -35 c57 -42 82 -88 82 -153 0 -104 -65 -178 -180 -207 l-65 -17 -12
-62 c-7 -35 -15 -65 -17 -67 -2 -3 -31 1 -65 8 -68 13 -69 16 -50 98 5 24 8
45 7 46 -2 1 -22 5 -44 9 l-42 6 -11 -61 c-6 -34 -12 -63 -14 -65 -2 -2 -31 2
-66 8 l-63 12 7 55 c4 30 9 59 11 66 3 8 -29 18 -96 30 -110 20 -109 19 -94
94 6 29 9 31 50 31 37 0 46 4 54 23 8 17 75 365 94 486 6 38 -3 50 -46 61 -30
9 -38 15 -34 28 3 9 8 34 12 54 5 32 10 37 28 33 36 -7 178 -35 181 -35 2 0 6
17 9 38 13 75 18 92 25 92 4 0 34 -5 66 -12z"/>
<path d="M870 2796 c-5 -28 -14 -72 -19 -98 l-8 -46 62 -11 c127 -22 178 -11
201 45 31 75 -7 114 -138 143 l-87 19 -11 -52z"/>
<path d="M815 2506 c-29 -152 -32 -182 -21 -193 20 -22 151 -38 197 -24 47 14
79 59 79 111 -1 63 -40 92 -163 119 l-86 19 -6 -32z"/>
<path d="M4080 3474 c-199 -37 -326 -93 -469 -208 -132 -107 -255 -297 -303
-471 -31 -116 -31 -355 0 -469 91 -330 344 -575 682 -662 105 -27 315 -27 420
0 299 77 525 270 638 545 152 372 50 793 -255 1053 -162 138 -342 206 -563
213 -69 2 -136 2 -150 -1z m190 -362 l0 -68 78 -10 c42 -6 93 -18 114 -27 l36
-15 -20 -84 c-12 -45 -22 -85 -24 -87 -1 -1 -31 7 -66 19 -88 32 -215 34 -255
4 -20 -15 -29 -31 -31 -56 -3 -31 2 -40 34 -66 21 -17 84 -50 141 -73 124 -50
199 -102 233 -160 21 -38 25 -57 25 -129 0 -102 -19 -146 -91 -208 -39 -35
-133 -82 -164 -82 -6 0 -10 -35 -10 -80 l0 -80 -80 0 -80 0 0 75 0 75 -33 0
c-55 0 -227 51 -227 67 0 2 10 42 21 89 18 69 25 85 38 80 9 -3 43 -15 76 -27
35 -13 94 -24 141 -27 68 -4 87 -1 121 16 43 23 53 37 53 82 0 46 -46 81 -186
139 -192 81 -253 148 -254 276 0 114 71 212 187 255 30 11 58 20 63 20 6 0 10
34 10 75 l0 75 75 0 75 0 0 -68z"/>
<path d="M2168 2833 c-82 -82 -148 -153 -148 -158 0 -6 68 -78 150 -160 l150
-150 0 78 0 77 395 0 396 0 -3 153 -3 152 -392 3 -392 2 -3 75 -3 75 -147
-147z"/>
<path d="M2798 2369 l-3 -74 -392 -3 -393 -2 0 -150 0 -150 395 0 395 0 0 -77
0 -78 152 153 153 152 -152 152 -152 152 -3 -75z"/>
</g>
</svg>
